<svg width="184" height="70" viewBox="0 0 184 70" fill="none" xmlns="http://www.w3.org/2000/svg">
<path d="M2.99187 0.0406494H0V69.9594H2.99187V0.0406494Z" fill="#1E1E20"/>
<path d="M5.98324 0.0406494H4.4873V69.9594H5.98324V0.0406494Z" fill="#1E1E20"/>
<path d="M10.4715 0.0406494H8.97559V69.9594H10.4715V0.0406494Z" fill="#1E1E20"/>
<path d="M17.951 0.0406494H16.4551V69.9594H17.951V0.0406494Z" fill="#1E1E20"/>
<path d="M25.4313 0.0406494H22.4395V69.9594H25.4313V0.0406494Z" fill="#1E1E20"/>
<path d="M31.4149 0.0406494H29.9189V69.9594H31.4149V0.0406494Z" fill="#1E1E20"/>
<path d="M34.4061 0.0406494H32.9102V69.9594H34.4061V0.0406494Z" fill="#1E1E20"/>
<path d="M38.8942 0.0406494H35.9023V69.9594H38.8942V0.0406494Z" fill="#1E1E20"/>
<path d="M43.3817 0.0406494H41.8857V69.9594H43.3817V0.0406494Z" fill="#1E1E20"/>
<path d="M50.8621 0.0406494H49.3662V69.9594H50.8621V0.0406494Z" fill="#1E1E20"/>
<path d="M58.3421 0.0406494H52.3584V69.9594H58.3421V0.0406494Z" fill="#1E1E20"/>
<path d="M62.8289 0.0406494H61.333V69.9594H62.8289V0.0406494Z" fill="#1E1E20"/>
<path d="M67.3172 0.0406494H65.8213V69.9594H67.3172V0.0406494Z" fill="#1E1E20"/>
<path d="M76.2923 0.0406494H70.3086V69.9594H76.2923V0.0406494Z" fill="#1E1E20"/>
<path d="M79.284 0.0406494H77.7881V69.9594H79.284V0.0406494Z" fill="#1E1E20"/>
<path d="M83.7723 0.0406494H82.2764V69.9594H83.7723V0.0406494Z" fill="#1E1E20"/>
<path d="M92.7477 0.0406494H89.7559V69.9594H92.7477V0.0406494Z" fill="#1E1E20"/>
<path d="M95.7401 0.0406494H94.2441V69.9594H95.7401V0.0406494Z" fill="#1E1E20"/>
<path d="M104.715 0.0406494H98.7314V69.9594H104.715V0.0406494Z" fill="#1E1E20"/>
<path d="M107.708 0.0406494H106.212V69.9594H107.708V0.0406494Z" fill="#1E1E20"/>
<path d="M112.195 0.0406494H110.699V69.9594H112.195V0.0406494Z" fill="#1E1E20"/>
<path d="M116.682 0.0406494H115.187V69.9594H116.682V0.0406494Z" fill="#1E1E20"/>
<path d="M121.171 0.0406494H119.675V69.9594H121.171V0.0406494Z" fill="#1E1E20"/>
<path d="M125.659 0.0406494H122.667V69.9594H125.659V0.0406494Z" fill="#1E1E20"/>
<path d="M134.633 0.0406494H131.642V69.9594H134.633V0.0406494Z" fill="#1E1E20"/>
<path d="M139.122 0.0406494H137.626V69.9594H139.122V0.0406494Z" fill="#1E1E20"/>
<path d="M142.114 0.0406494H140.618V69.9594H142.114V0.0406494Z" fill="#1E1E20"/>
<path d="M152.585 0.0406494H148.098V69.9594H152.585V0.0406494Z" fill="#1E1E20"/>
<path d="M158.569 0.0406494H155.577V69.9594H158.569V0.0406494Z" fill="#1E1E20"/>
<path d="M161.56 0.0406494H160.064V69.9594H161.56V0.0406494Z" fill="#1E1E20"/>
<path d="M167.545 0.0406494H164.553V69.9594H167.545V0.0406494Z" fill="#1E1E20"/>
<path d="M176.52 0.0406494H172.032V69.9594H176.52V0.0406494Z" fill="#1E1E20"/>
<path d="M179.513 0.0406494H178.017V69.9594H179.513V0.0406494Z" fill="#1E1E20"/>
<path d="M184 0.0406494H181.008V69.9594H184V0.0406494Z" fill="#1E1E20"/>
</svg>
